<svg style="position: absolute; width: 0; height: 0; overflow: hidden;" version="1.1" xmlns="http://www.w3.org/2000/svg" xmlns:xlink="http://www.w3.org/1999/xlink">
<defs>
<symbol id="icon-ba" viewBox="0 0 18 32">
<title>ba</title>
<path fill="#4d4d4d" style="fill: var(--color1, #4d4d4d)" d="M14.232 2.975l1.486-1.486-1.486-1.489h-10.951l-1.489 1.489 1.489 1.486h10.951z"></path>
<path fill="#4d4d4d" style="fill: var(--color1, #4d4d4d)" d="M14.232 17.487l1.486-1.486-1.486-1.489h-10.951l-1.489 1.489 1.489 1.486h10.951z"></path>
<path fill="#4d4d4d" style="fill: var(--color1, #4d4d4d)" d="M14.232 32l1.486-1.486-1.486-1.489h-10.951l-1.489 1.489 1.489 1.486h10.951z"></path>
<path fill="#4d4d4d" style="fill: var(--color1, #4d4d4d)" d="M14.569 3.2v10.951l1.486 1.489 1.489-1.489v-10.951l-1.489-1.486-1.486 1.486z"></path>
<path fill="#4d4d4d" style="fill: var(--color1, #4d4d4d)" d="M17.544 28.753v-10.954l-1.489-1.486-1.486 1.486v10.954l1.486 1.486 1.489-1.486z"></path>
<path fill="#4d4d4d" style="fill: var(--color1, #4d4d4d)" d="M0 3.2v10.951l1.489 1.489 1.486-1.489v-10.951l-1.486-1.486-1.489 1.486z"></path>
<path fill="#4d4d4d" style="fill: var(--color1, #4d4d4d)" d="M2.975 28.753v-10.954l-1.486-1.486-1.489 1.486v10.954l1.489 1.486 1.486-1.486z"></path>
</symbol>
<symbol id="icon-er" viewBox="0 0 17 32">
<title>er</title>
<path fill="#4d4d4d" style="fill: var(--color1, #4d4d4d)" d="M14.185 2.959l1.481-1.478-1.481-1.481h-10.891l-1.481 1.481 1.481 1.478h10.891z"></path>
<path fill="#4d4d4d" style="fill: var(--color1, #4d4d4d)" d="M14.185 17.455l1.481-1.478-1.481-1.481h-10.891l-1.481 1.481 1.481 1.478h10.891z"></path>
<path fill="#4d4d4d" style="fill: var(--color1, #4d4d4d)" d="M14.521 3.294v10.891l1.481 1.481 1.478-1.481v-10.891l-1.478-1.481-1.481 1.481z"></path>
<path fill="#4d4d4d" style="fill: var(--color1, #4d4d4d)" d="M14.185 29.041h-10.891l-1.481 1.481 1.481 1.478h10.891l1.481-1.478-1.481-1.481z"></path>
<path fill="#4d4d4d" style="fill: var(--color1, #4d4d4d)" d="M2.959 28.706v-10.891l-1.478-1.478-1.481 1.478v10.891l1.481 1.481 1.478-1.481z"></path>
</symbol>
<symbol id="icon-fengehao" viewBox="0 0 8 32">
<title>fengehao</title>
<path d="M0 0h8.167v8.575h-8.167v-8.575zM0 23.833h8.167v8.167h-8.167v-8.167z"></path>
</symbol>
<symbol id="icon-jiu" viewBox="0 0 18 32">
<title>jiu</title>
<path fill="#4d4d4d" style="fill: var(--color1, #4d4d4d)" d="M14.232 2.975l1.486-1.486-1.486-1.489h-10.951l-1.489 1.489 1.489 1.486h10.951z"></path>
<path fill="#4d4d4d" style="fill: var(--color1, #4d4d4d)" d="M14.232 17.487l1.486-1.486-1.486-1.489h-10.951l-1.489 1.489 1.489 1.486h10.951z"></path>
<path fill="#4d4d4d" style="fill: var(--color1, #4d4d4d)" d="M14.232 32l1.486-1.486-1.486-1.489h-10.951l-1.489 1.489 1.489 1.486h10.951z"></path>
<path fill="#4d4d4d" style="fill: var(--color1, #4d4d4d)" d="M14.569 3.2v10.951l1.486 1.489 1.489-1.489v-10.951l-1.489-1.486-1.486 1.486z"></path>
<path fill="#4d4d4d" style="fill: var(--color1, #4d4d4d)" d="M17.544 28.753v-10.954l-1.489-1.486-1.486 1.486v10.954l1.486 1.486 1.489-1.486z"></path>
<path fill="#4d4d4d" style="fill: var(--color1, #4d4d4d)" d="M0 3.2v10.951l1.489 1.489 1.486-1.489v-10.951l-1.486-1.486-1.489 1.486z"></path>
</symbol>
<symbol id="icon-ling" viewBox="0 0 17 32">
<title>ling</title>
<path fill="#4d4d4d" style="fill: var(--color1, #4d4d4d)" d="M14.185 2.959l1.481-1.478-1.481-1.481h-10.891l-1.481 1.481 1.481 1.478h10.891z"></path>
<path fill="#4d4d4d" style="fill: var(--color1, #4d4d4d)" d="M2.959 14.185v-10.891l-1.478-1.481-1.481 1.481v10.891l1.481 1.481 1.478-1.481z"></path>
<path fill="#4d4d4d" style="fill: var(--color1, #4d4d4d)" d="M14.521 3.294v10.891l1.481 1.481 1.478-1.481v-10.891l-1.478-1.481-1.481 1.481z"></path>
<path fill="#4d4d4d" style="fill: var(--color1, #4d4d4d)" d="M16.002 16.337l-1.481 1.478v10.891l1.481 1.481 1.478-1.481v-10.891l-1.478-1.478z"></path>
<path fill="#4d4d4d" style="fill: var(--color1, #4d4d4d)" d="M14.185 29.041h-10.891l-1.481 1.481 1.481 1.478h10.891l1.481-1.478-1.481-1.481z"></path>
<path fill="#4d4d4d" style="fill: var(--color1, #4d4d4d)" d="M2.959 28.706v-10.891l-1.478-1.478-1.481 1.478v10.891l1.481 1.481 1.478-1.481z"></path>
</symbol>
<symbol id="icon-liu" viewBox="0 0 18 32">
<title>liu</title>
<path fill="#4d4d4d" style="fill: var(--color1, #4d4d4d)" d="M14.341 17.324l1.479-1.479-1.476-1.479h-10.881l-1.476 1.479 1.476 1.479h10.878z"></path>
<path fill="#4d4d4d" style="fill: var(--color1, #4d4d4d)" d="M14.341 2.955l1.479-1.476-1.476-1.479h-10.881l-1.476 1.479 1.476 1.476h10.878z"></path>
<path fill="#4d4d4d" style="fill: var(--color1, #4d4d4d)" d="M14.341 32l1.479-1.479-1.476-1.476h-10.881l-1.476 1.476 1.476 1.479h10.878z"></path>
<path fill="#4d4d4d" style="fill: var(--color1, #4d4d4d)" d="M0 3.178v10.878l1.479 1.479 1.476-1.479v-10.878l-1.476-1.476-1.479 1.476z"></path>
<path fill="#4d4d4d" style="fill: var(--color1, #4d4d4d)" d="M17.634 28.561v-10.881l-1.479-1.476-1.479 1.476v10.881l1.479 1.476 1.479-1.476z"></path>
<path fill="#4d4d4d" style="fill: var(--color1, #4d4d4d)" d="M2.955 28.561v-10.881l-1.476-1.476-1.479 1.476v10.881l1.479 1.476 1.476-1.476z"></path>
</symbol>
<symbol id="icon-qi" viewBox="0 0 17 32">
<title>qi</title>
<path fill="#4d4d4d" style="fill: var(--color1, #4d4d4d)" d="M13.164 3.148l1.572-1.572-1.572-1.576h-11.588l-1.576 1.576 1.576 1.572h11.588z"></path>
<path fill="#4d4d4d" style="fill: var(--color1, #4d4d4d)" d="M13.521 3.386v11.588l1.572 1.576 1.576-1.576v-11.588l-1.576-1.572-1.572 1.572z"></path>
<path fill="#4d4d4d" style="fill: var(--color1, #4d4d4d)" d="M16.669 30.428v-11.592l-1.576-1.572-1.572 1.572v11.592l1.572 1.572 1.576-1.572z"></path>
</symbol>
<symbol id="icon-san" viewBox="0 0 16 32">
<title>san</title>
<path fill="#4d4d4d" style="fill: var(--color1, #4d4d4d)" d="M12.372 2.959l1.478-1.478-1.478-1.481h-10.891l-1.481 1.481 1.481 1.478h10.891z"></path>
<path fill="#4d4d4d" style="fill: var(--color1, #4d4d4d)" d="M12.372 17.455l1.478-1.478-1.478-1.481h-10.891l-1.481 1.481 1.481 1.478h10.891z"></path>
<path fill="#4d4d4d" style="fill: var(--color1, #4d4d4d)" d="M12.707 3.294v10.891l1.478 1.481 1.481-1.481v-10.891l-1.481-1.481-1.478 1.481z"></path>
<path fill="#4d4d4d" style="fill: var(--color1, #4d4d4d)" d="M12.372 29.041h-10.891l-1.481 1.481 1.481 1.478h10.891l1.478-1.478-1.478-1.481z"></path>
<path fill="#4d4d4d" style="fill: var(--color1, #4d4d4d)" d="M15.666 28.706v-10.891l-1.481-1.478-1.478 1.478v10.891l1.478 1.481 1.481-1.481z"></path>
</symbol>
<symbol id="icon-si" viewBox="0 0 20 32">
<title>si</title>
<path fill="#4d4d4d" style="fill: var(--color1, #4d4d4d)" d="M16.196 17.642l1.67-1.67-1.667-1.667h-12.288l-1.667 1.667 1.667 1.67h12.285z"></path>
<path fill="#4d4d4d" style="fill: var(--color1, #4d4d4d)" d="M16.574 1.667v12.288l1.67 1.667 1.67-1.667v-12.285l-1.67-1.67-1.67 1.667z"></path>
<path fill="#4d4d4d" style="fill: var(--color1, #4d4d4d)" d="M0 1.667v12.288l1.67 1.667 1.667-1.667v-12.285l-1.667-1.67-1.67 1.667z"></path>
<path fill="#4d4d4d" style="fill: var(--color1, #4d4d4d)" d="M19.915 30.333v-12.285l-1.67-1.67-1.67 1.67v12.285l1.67 1.67 1.67-1.67z"></path>
</symbol>
<symbol id="icon-wu" viewBox="0 0 18 32">
<title>wu</title>
<path fill="#4d4d4d" style="fill: var(--color1, #4d4d4d)" d="M14.341 17.324l1.479-1.479-1.476-1.479h-10.881l-1.476 1.479 1.476 1.479h10.878z"></path>
<path fill="#4d4d4d" style="fill: var(--color1, #4d4d4d)" d="M14.341 2.955l1.479-1.476-1.476-1.479h-10.881l-1.476 1.479 1.476 1.476h10.878z"></path>
<path fill="#4d4d4d" style="fill: var(--color1, #4d4d4d)" d="M14.341 32l1.479-1.479-1.476-1.476h-10.881l-1.476 1.476 1.476 1.479h10.878z"></path>
<path fill="#4d4d4d" style="fill: var(--color1, #4d4d4d)" d="M0 3.178v10.878l1.479 1.479 1.476-1.479v-10.878l-1.476-1.476-1.479 1.476z"></path>
<path fill="#4d4d4d" style="fill: var(--color1, #4d4d4d)" d="M17.634 28.561v-10.881l-1.479-1.476-1.479 1.476v10.881l1.479 1.476 1.479-1.476z"></path>
</symbol>
<symbol id="icon-yi" viewBox="0 0 3 32">
<title>yi</title>
<path fill="#4d4d4d" style="fill: var(--color1, #4d4d4d)" d="M0 1.667v12.288l1.67 1.667 1.667-1.667v-12.285l-1.667-1.67-1.67 1.667z"></path>
<path fill="#4d4d4d" style="fill: var(--color1, #4d4d4d)" d="M3.337 30.333v-12.285l-1.667-1.67-1.67 1.67v12.285l1.67 1.67 1.667-1.67z"></path>
</symbol>
<symbol id="icon-chenggong" viewBox="0 0 32 32">
<title>chenggong</title>
<path d="M16 32c-8.837 0-16-7.163-16-16s7.163-16 16-16c8.837 0 16 7.163 16 16v0c-0.010 8.832-7.168 15.99-15.999 16h-0.001zM16 1.646c-7.927 0-14.354 6.426-14.354 14.354s6.426 14.354 14.354 14.354c7.927 0 14.354-6.426 14.354-14.354v0c-0.009-7.924-6.43-14.345-14.353-14.354h-0.001z"></path>
<path d="M14.189 20.856c-0.001 0-0.003 0-0.004 0-0.214 0-0.41-0.082-0.556-0.216l0.001 0.001-5.268-4.807c-0.165-0.151-0.268-0.368-0.268-0.608 0-0.455 0.369-0.823 0.823-0.823 0.214 0 0.409 0.082 0.555 0.216l-0.001-0.001 4.714 4.301 8.333-7.561c0.146-0.132 0.34-0.213 0.553-0.213 0.455 0 0.823 0.369 0.823 0.823 0 0.241-0.104 0.459-0.27 0.609l-0.001 0.001-8.889 8.066c-0.144 0.131-0.336 0.211-0.546 0.212h-0z"></path>
</symbol>
<symbol id="icon-fanhui" viewBox="0 0 32 32">
<title>fanhui</title>
<path stroke-width="2.2626" stroke-miterlimit="4" stroke-linecap="round" stroke-linejoin="round" d="M23.192 1.131l-14.384 15.030 14.384 14.707"></path>
</symbol>
<symbol id="icon-fenxiang" viewBox="0 0 32 32">
<title>fenxiang</title>
<path d="M27.907 18.981c-0.465 0-0.842 0.377-0.842 0.842v0 6.956c0 1.395-1.131 2.526-2.526 2.526v0h-20.328c-1.395 0-2.526-1.131-2.526-2.526v0-20.312c0-1.395 1.131-2.526 2.526-2.526v0h14.703c0.465 0 0.842-0.377 0.842-0.842s-0.377-0.842-0.842-0.842v0h-14.703c-2.325 0-4.211 1.885-4.211 4.211v0 20.312c0 2.325 1.885 4.211 4.211 4.211v0h20.328c2.325 0 4.211-1.885 4.211-4.211v0-6.956c0-0.465-0.377-0.842-0.842-0.842v0z"></path>
<path d="M31.744 7.901l-6.956-6.737c-0.152-0.148-0.36-0.24-0.589-0.24-0.466 0-0.844 0.378-0.844 0.844 0 0.237 0.098 0.451 0.255 0.604l0 0 5.389 5.221c-0.263-0.022-0.57-0.034-0.879-0.034-0.366 0-0.728 0.017-1.085 0.051l0.046-0.003c-0.377 0.024-0.734 0.047-1.093 0.047-8.892 0-16.236 6.626-17.365 15.209l-0.010 0.089c-0.006 0.037-0.009 0.080-0.009 0.124 0 0.465 0.377 0.842 0.842 0.842 0.435 0 0.793-0.33 0.838-0.754l0-0.004c1.027-7.84 7.666-13.83 15.704-13.831h0c0.411 0 0.813-0.025 1.201-0.051 0.712-0.045 1.384-0.089 2.003 0.035 0.019 0 0.035 0 0.054 0l-5.666 6.060c-0.141 0.15-0.227 0.353-0.227 0.575 0 0.465 0.377 0.842 0.842 0.842 0.243 0 0.461-0.103 0.615-0.267l0-0 6.956-7.444c0.143-0.151 0.231-0.355 0.231-0.579 0-0.236-0.097-0.448-0.253-0.601l-0-0z"></path>
</symbol>
<symbol id="icon-gengduo" viewBox="0 0 32 32">
<title>gengduo</title>
<path d="M28.619 12.56c-1.897 0-3.435 1.538-3.435 3.435s1.538 3.435 3.435 3.435c1.897 0 3.435-1.538 3.435-3.435 0-0.001 0-0.001 0-0.002v0c-0.003-1.896-1.539-3.432-3.435-3.434h-0zM28.619 17.776c-0 0-0.001 0-0.002 0-0.984 0-1.782-0.798-1.782-1.782s0.798-1.782 1.782-1.782c0.984 0 1.782 0.798 1.782 1.782v0c-0.001 0.983-0.797 1.781-1.781 1.782h-0z"></path>
<path d="M16.027 12.56c-0 0-0.001 0-0.002 0-1.897 0-3.435 1.538-3.435 3.435s1.538 3.435 3.435 3.435c1.897 0 3.435-1.538 3.435-3.435 0-0.001 0-0.001 0-0.002v0c-0.003-1.895-1.538-3.431-3.433-3.434h-0zM16.027 17.776c-0 0-0.001 0-0.002 0-0.984 0-1.782-0.798-1.782-1.782s0.798-1.782 1.782-1.782c0.984 0 1.782 0.798 1.782 1.782v0c-0.001 0.983-0.797 1.781-1.781 1.782h-0z"></path>
<path d="M3.435 12.56c-1.897 0-3.435 1.538-3.435 3.435s1.538 3.435 3.435 3.435c1.897 0 3.435-1.538 3.435-3.435 0-0.001 0-0.001 0-0.002v0c-0.003-1.896-1.539-3.432-3.435-3.434h-0zM3.435 17.776c-0.984 0-1.782-0.798-1.782-1.782s0.798-1.782 1.782-1.782c0.984 0 1.782 0.798 1.782 1.782v0c-0.001 0.984-0.798 1.781-1.782 1.782h-0z"></path>
</symbol>
<symbol id="icon-gerenzhongxin" viewBox="0 0 32 32">
<title>gerenzhongxin</title>
<path d="M19.232 17.671h-6.406c-5.954 0-10.799 4.77-10.799 10.633v0.632c0 3.064 4.766 3.064 10.799 3.064h6.406c5.796 0 10.801 0 10.801-3.064v-0.632c0.002-5.861-4.843-10.633-10.801-10.633zM28.324 28.304v0.632c0 1.357-5.693 1.357-9.094 1.357h-6.406c-4.051 0-9.092 0-9.092-1.357v-0.632c0-4.922 4.079-8.928 9.092-8.928h6.408c5.017 0.002 9.096 4.006 9.096 8.93z"></path>
<path d="M15.71 16.855c4.717 0 8.553-3.781 8.553-8.427s-3.836-8.427-8.553-8.427-8.553 3.781-8.553 8.427 3.836 8.427 8.553 8.427zM8.865 8.427c0-3.704 3.070-6.718 6.846-6.72s6.846 3.014 6.846 6.72-3.070 6.72-6.846 6.72-6.846-3.016-6.846-6.72z"></path>
</symbol>
<symbol id="icon-guize" viewBox="0 0 32 32">
<title>guize</title>
<path d="M20.5 27.013h-9.681c-0.404 0-0.731-0.327-0.731-0.731v0-1.366c-4.446-2.149-7.464-6.615-7.488-11.788v-0.003c0-7.237 6.010-13.125 13.401-13.125s13.401 5.88 13.401 13.125c0 0.015 0 0.034 0 0.052 0 5.448-3.34 10.115-8.084 12.066l-0.087 0.032v1.007c0 0.404-0.327 0.731-0.731 0.731v0zM11.549 25.551h8.219v-0.78c0-0.316 0.201-0.585 0.482-0.687l0.005-0.002c4.514-1.626 7.684-5.872 7.684-10.858 0-0.035-0-0.070-0-0.105l0 0.005c0-6.431-5.36-11.663-11.939-11.663s-11.939 5.23-11.939 11.663c0.027 4.75 2.887 8.825 6.975 10.623l0.075 0.029c0.26 0.116 0.438 0.372 0.439 0.669v0z"></path>
<path d="M20.5 31.951h-9.665c-0.404 0-0.731-0.327-0.731-0.731s0.327-0.731 0.731-0.731v0h9.665c0.404 0 0.731 0.327 0.731 0.731s-0.327 0.731-0.731 0.731v0z"></path>
<path d="M24.349 13.596c-0.404 0-0.731-0.327-0.731-0.731v0c0-3.371-3.064-6.952-8.739-6.952-0.404 0-0.731-0.327-0.731-0.731s0.327-0.731 0.731-0.731v0c2.656 0 5.157 0.794 7.043 2.238 2.037 1.558 3.158 3.752 3.158 6.173 0 0.001 0 0.002 0 0.003 0 0.404-0.327 0.731-0.731 0.731 0 0 0 0 0 0v0z"></path>
</symbol>
<symbol id="icon-luilanqidakai" viewBox="0 0 32 32">
<title>luilanqidakai</title>
<path d="M16 0c-8.837 0-16 7.163-16 16s7.163 16 16 16c8.837 0 16-7.163 16-16v0c-0.010-8.832-7.168-15.99-15.999-16h-0.001zM23.742 28.121l-1.081-1.879c-0.085-0.146-0.241-0.242-0.419-0.242-0.267 0-0.484 0.217-0.484 0.484 0 0.089 0.024 0.173 0.066 0.244l-0.001-0.002 1.090 1.889c-1.8 1.010-3.932 1.648-6.203 1.755l-0.032 0.001v-2.274c0-0.267-0.217-0.484-0.484-0.484s-0.484 0.217-0.484 0.484v0 2.287c-2.319-0.046-4.49-0.637-6.403-1.65l0.078 0.038 1.181-2.045c0.041-0.069 0.065-0.153 0.065-0.242 0-0.267-0.217-0.484-0.484-0.484-0.178 0-0.334 0.096-0.418 0.24l-0.001 0.002-1.185 2.056c-1.897-1.169-3.46-2.699-4.632-4.506l-0.034-0.057 1.916-1.106c0.146-0.085 0.242-0.241 0.242-0.419 0-0.267-0.217-0.484-0.484-0.484-0.089 0-0.173 0.024-0.244 0.066l0.002-0.001-1.927 1.111c-1.037-1.853-1.678-4.052-1.756-6.394l-0.001-0.023h2.313c0.267 0 0.484-0.217 0.484-0.484s-0.217-0.484-0.484-0.484v0h-2.313c0.079-2.366 0.721-4.565 1.795-6.49l-0.037 0.073 1.926 1.111c0.069 0.041 0.153 0.065 0.242 0.065 0.267 0 0.484-0.217 0.484-0.484 0-0.178-0.096-0.334-0.24-0.418l-0.002-0.001-1.916-1.105c1.206-1.865 2.769-3.396 4.604-4.529l0.062-0.036 1.185 2.056c0.085 0.146 0.241 0.242 0.419 0.242 0.267 0 0.484-0.217 0.484-0.484 0-0.089-0.024-0.173-0.066-0.244l0.001 0.002-1.181-2.047c1.836-0.975 4.007-1.566 6.312-1.611l0.014-0v2.287c0 0.267 0.217 0.484 0.484 0.484s0.484-0.217 0.484-0.484v0-2.274c2.303 0.109 4.435 0.747 6.308 1.794l-0.072-0.037-1.090 1.889c-0.041 0.069-0.065 0.153-0.065 0.242 0 0.267 0.217 0.484 0.484 0.484 0.178 0 0.334-0.096 0.418-0.24l0.001-0.002 1.084-1.877c1.856 1.203 3.38 2.761 4.509 4.588l0.036 0.062-2.016 1.163c-0.146 0.085-0.242 0.241-0.242 0.419 0 0.267 0.217 0.484 0.484 0.484 0.089 0 0.173-0.024 0.244-0.066l-0.002 0.001 2.016-1.16c0.949 1.782 1.537 3.886 1.612 6.12l0.001 0.024h-2.258c-0.267 0-0.484 0.217-0.484 0.484s0.217 0.484 0.484 0.484v0h2.248c-0.076 2.257-0.664 4.361-1.65 6.221l0.037-0.077-2.006-1.16c-0.069-0.041-0.153-0.065-0.242-0.065-0.267 0-0.484 0.217-0.484 0.484 0 0.178 0.096 0.334 0.24 0.418l0.002 0.001 2.016 1.161c-1.165 1.891-2.689 3.449-4.489 4.619l-0.056 0.034z"></path>
<path d="M14.194 14.223l-8.355 11.844 12.179-8.369 8.074-11.734zM15.097 15.132l0.111-0.077 1.861 1.761-6.129 4.215z"></path>
</symbol>
<symbol id="icon-mima" viewBox="0 0 32 32">
<title>mima</title>
<path d="M25.6 11.415h-0.573v-2.436c0-4.959-4.020-8.979-8.979-8.979s-8.979 4.020-8.979 8.979v0 2.436h-0.7c-2.198 0-3.98 1.782-3.98 3.98v0 12.689c0 2.198 1.782 3.98 3.98 3.98v0h19.232c2.198 0 3.98-1.782 3.98-3.98v0-12.689c0-2.198-1.782-3.98-3.98-3.98v0zM8.661 8.979c0-4.080 3.307-7.387 7.387-7.387s7.387 3.307 7.387 7.387v0 2.436h-14.774zM27.988 28.084c0 1.319-1.069 2.388-2.388 2.388v0h-19.232c-1.319 0-2.388-1.069-2.388-2.388v0-12.689c0-1.319 1.069-2.388 2.388-2.388v0h19.232c1.319 0 2.388 1.069 2.388 2.388v0z"></path>
<path d="M15.984 15.506c-2.224 0-4.027 1.804-4.027 4.028 0 1.942 1.375 3.564 3.205 3.944l0.026 0.005v3.662c0 0.44 0.356 0.796 0.796 0.796s0.796-0.356 0.796-0.796v0-4.378c0-0.44-0.356-0.796-0.796-0.796v0c-1.343-0.002-2.431-1.091-2.431-2.434 0-1.344 1.090-2.434 2.434-2.434s2.434 1.090 2.434 2.434c0 0.645-0.251 1.231-0.66 1.667l0.001-0.001c-0.135 0.142-0.218 0.335-0.218 0.547 0 0.44 0.356 0.796 0.796 0.796 0.228 0 0.433-0.096 0.578-0.249l0-0c0.678-0.719 1.095-1.691 1.095-2.761 0-2.225-1.803-4.028-4.028-4.028-0.001 0-0.002 0-0.003 0h0z"></path>
</symbol>
<symbol id="icon-shanchu" viewBox="0 0 32 32">
<title>shanchu</title>
<path d="M16 0c-8.837 0-16 7.163-16 16s7.163 16 16 16c8.837 0 16-7.163 16-16v0c0-0.009 0-0.021 0-0.032 0-8.819-7.149-15.968-15.968-15.968-0.011 0-0.022 0-0.034 0h0.002zM22.725 22.693c-0.209 0.193-0.489 0.311-0.797 0.311s-0.588-0.118-0.798-0.312l0.001 0.001-5.131-5.131-5.131 5.131c-0.199 0.181-0.465 0.291-0.757 0.291-0.623 0-1.128-0.505-1.128-1.128 0-0.292 0.111-0.557 0.292-0.758l-0.001 0.001 5.131-5.131-5.131-5.1c-0.229-0.207-0.372-0.505-0.372-0.837 0-0.623 0.505-1.128 1.128-1.128 0.332 0 0.63 0.143 0.836 0.371l0.001 0.001 5.131 5.131 5.131-5.131c0.199-0.181 0.465-0.291 0.757-0.291 0.623 0 1.128 0.505 1.128 1.128 0 0.292-0.111 0.557-0.292 0.758l0.001-0.001-5.131 5.131 5.131 5.131c0.246 0.175 0.404 0.46 0.404 0.781s-0.158 0.606-0.401 0.779l-0.003 0.002z"></path>
</symbol>
<symbol id="icon-shezhi" viewBox="0 0 32 32">
<title>shezhi</title>
<path d="M16.030 21.763c-3.192 0-5.779-2.587-5.779-5.779s2.587-5.779 5.779-5.779c3.192 0 5.779 2.587 5.779 5.779v0c-0.004 3.19-2.589 5.775-5.779 5.779h-0zM16.030 11.797c-2.312 0-4.187 1.875-4.187 4.187s1.875 4.187 4.187 4.187c2.312 0 4.187-1.875 4.187-4.187v0c-0.003-2.311-1.876-4.184-4.187-4.187h-0z"></path>
<path d="M20.711 31.968c-0 0-0 0-0.001 0-0.284 0-0.533-0.149-0.674-0.372l-0.002-0.003c-0.783-1.256-2.238-2.208-4.009-2.63-1.751 0.406-3.206 1.353-4.004 2.617-0.144 0.223-0.39 0.368-0.671 0.368-0.147 0-0.284-0.040-0.402-0.109l0.004 0.002-5.349-3.089c-0.24-0.14-0.398-0.396-0.398-0.689 0-0.166 0.051-0.319 0.137-0.447l-0.002 0.003c0.471-0.686 0.753-1.534 0.756-2.448v-0.001c0-0.005 0-0.011 0-0.017 0-1.215-0.497-2.313-1.299-3.103l-0-0c-0.796-0.788-1.89-1.274-3.099-1.274-0.024 0-0.048 0-0.071 0.001l0.004-0h-0.008c-0.349-0-0.646-0.225-0.753-0.537l-0.002-0.006c-1.433-4.251 0.013-8.099 0.075-8.259 0.118-0.301 0.406-0.511 0.743-0.511 0 0 0 0 0 0v0c0.002 0 0.004 0 0.006 0 2.422 0 4.386-1.964 4.386-4.386 0-0.918-0.282-1.77-0.764-2.475l0.010 0.015c-0.084-0.124-0.134-0.277-0.134-0.442 0-0.281 0.146-0.529 0.367-0.67l0.003-0.002 4.845-3.054s0.252-0.148 0.478-0.304c0.126-0.088 0.283-0.141 0.452-0.141 0.284 0 0.532 0.148 0.673 0.371l0.002 0.003c0.796 1.274 2.25 2.229 4.021 2.646 1.77-0.42 3.23-1.377 4.021-2.646 0.143-0.226 0.392-0.374 0.675-0.374 0.156 0 0.302 0.045 0.425 0.123l-0.003-0.002c0.259 0.159 0.537 0.341 0.537 0.341l4.8 3.036c0.223 0.144 0.369 0.391 0.369 0.672 0 0.165-0.050 0.319-0.136 0.446l0.002-0.003c-0.473 0.689-0.755 1.542-0.755 2.46 0 2.422 1.964 4.386 4.386 4.386 0.003 0 0.006 0 0.008 0h-0c0 0 0 0 0 0 0.337 0 0.625 0.21 0.741 0.506l0.002 0.005c0.062 0.159 1.503 4.007 0.092 8.279-0.108 0.32-0.406 0.546-0.756 0.546-0 0-0 0-0 0h-0.013c-0.022-0-0.048-0.001-0.074-0.001-2.422 0-4.386 1.964-4.386 4.386 0 0.918 0.282 1.771 0.765 2.475l-0.010-0.015c0.085 0.125 0.136 0.279 0.136 0.445 0 0.293-0.158 0.548-0.393 0.687l-0.004 0.002c-0.027 0.016-2.802 1.625-5.352 3.090-0.111 0.063-0.245 0.1-0.387 0.1-0.003 0-0.007-0-0.010-0h0zM16.030 27.351c0.001 0 0.002 0 0.003 0 0.059 0 0.116 0.006 0.171 0.018l-0.005-0.001c1.966 0.427 3.652 1.414 4.739 2.754 1.592-0.912 3.167-1.828 4.037-2.331-0.378-0.763-0.6-1.661-0.6-2.611 0-3.122 2.391-5.685 5.442-5.959l0.023-0.002c0.731-2.697 0.21-5.181-0.073-6.195-3.041-0.306-5.395-2.852-5.395-5.948 0-0.965 0.229-1.876 0.635-2.683l-0.016 0.034-4.058-2.558c-1.094 1.339-2.777 2.323-4.736 2.745-0.050 0.011-0.108 0.018-0.168 0.018s-0.117-0.007-0.173-0.019l0.005 0.001c-1.965-0.422-3.641-1.406-4.735-2.745l-4.076 2.566c0.39 0.767 0.619 1.672 0.621 2.631v0.001c-0.004 3.097-2.356 5.644-5.371 5.955l-0.026 0.002c-0.283 1.014-0.796 3.495-0.061 6.182 1.452 0.127 2.737 0.756 3.699 1.712l-0-0c1.094 1.083 1.772 2.585 1.772 4.245 0 0.951-0.222 1.849-0.617 2.647l0.016-0.035 4.039 2.332c1.097-1.347 2.784-2.329 4.741-2.74 0.050-0.011 0.107-0.017 0.166-0.017 0 0 0.001 0 0.001 0h-0z"></path>
</symbol>
<symbol id="icon-shoujihao" viewBox="0 0 32 32">
<title>shoujihao</title>
<path d="M23.96 0h-16c-2.198 0-3.98 1.782-3.98 3.98v0 23.96c0 2.198 1.782 3.98 3.98 3.98v0h16.016c2.19-0.001 3.964-1.776 3.964-3.966 0-0.005 0-0.010-0-0.015v0.001-23.96c0-2.198-1.782-3.98-3.98-3.98v0zM7.96 1.592h16c1.319 0 2.388 1.069 2.388 2.388v0 1.114h-20.776v-1.114c0-1.319 1.069-2.388 2.388-2.388v0zM26.348 6.687v15.443h-20.776v-15.443zM25.664 29.623c-0.429 0.435-1.024 0.705-1.683 0.705-0.002 0-0.003 0-0.005 0h-16.016c-1.319 0-2.388-1.069-2.388-2.388v0-4.219h20.776v4.219c0 0.009 0 0.020 0 0.031 0 0.645-0.262 1.229-0.685 1.651l-0 0z"></path>
<path d="M15.968 25.759c-0.783 0-1.417 0.634-1.417 1.417s0.634 1.417 1.417 1.417c0.783 0 1.417-0.634 1.417-1.417v0c-0.001-0.782-0.635-1.416-1.417-1.417h-0zM15.968 27.351c-0.097 0-0.175-0.078-0.175-0.175s0.078-0.175 0.175-0.175c0.097 0 0.175 0.078 0.175 0.175v0c0 0.097-0.078 0.175-0.175 0.175v0z"></path>
</symbol>
<symbol id="icon-tishi" viewBox="0 0 32 32">
<title>tishi</title>
<path d="M16 32c-8.837 0-16-7.163-16-16s7.163-16 16-16c8.837 0 16 7.163 16 16v0c-0.010 8.833-7.167 15.99-15.999 16h-0.001zM16 2.236c-7.602 0-13.764 6.163-13.764 13.764s6.163 13.764 13.764 13.764c7.602 0 13.764-6.163 13.764-13.764v0c-0.009-7.598-6.166-13.755-13.764-13.764h-0.001z"></path>
<path d="M15.984 20.727c-0.617 0-1.118-0.5-1.118-1.118v0-1.485c0.007-0.851 0.279-1.637 0.736-2.281l-0.008 0.012q0.027-0.038 0.057-0.075c0.333-0.453 0.75-0.823 1.231-1.093l0.019-0.010c0.489-0.275 1.614-1.063 1.557-2.445-0.046-1.327-1.133-2.385-2.467-2.385-1.363 0-2.469 1.105-2.469 2.469 0 0.010 0 0.021 0 0.031v-0.002c0 0.617-0.5 1.118-1.118 1.118s-1.118-0.5-1.118-1.118v0c0.001-1.362 0.579-2.589 1.503-3.45l0.003-0.003c0.831-0.777 1.95-1.255 3.181-1.255 0.134 0 0.266 0.006 0.397 0.017l-0.017-0.001c2.366 0.195 4.227 2.108 4.34 4.48l0 0.011c0.075 1.808-0.931 3.484-2.692 4.471-0.223 0.118-0.407 0.28-0.549 0.474l-0.003 0.005q-0.027 0.040-0.058 0.077c-0.178 0.264-0.287 0.588-0.292 0.938l-0 0.001v1.485c0 0.004 0 0.009 0 0.014 0 0.617-0.5 1.117-1.116 1.118h-0z"></path>
<path d="M16 24.575c-0.882 0-1.597-0.715-1.597-1.597s0.715-1.597 1.597-1.597c0.882 0 1.597 0.715 1.597 1.597v0c0 0.882-0.715 1.597-1.597 1.597v0zM16 22.339c-0.353 0-0.639 0.286-0.639 0.639s0.286 0.639 0.639 0.639c0.353 0 0.639-0.286 0.639-0.639v0c0-0.353-0.286-0.639-0.639-0.639v0z"></path>
</symbol>
<symbol id="icon-tixong" viewBox="0 0 32 32">
<title>tixong</title>
<path d="M31.080 15.779c-0-2.506-0.619-4.868-1.713-6.941l0.039 0.081c1.028-0.901 1.673-2.216 1.673-3.682 0-2.7-2.189-4.888-4.888-4.888-0.008 0-0.015 0-0.023 0h0.001c-0.001 0-0.002 0-0.003 0-1.526 0-2.89 0.691-3.797 1.776l-0.006 0.008c-1.854-0.882-4.029-1.398-6.324-1.398-2.169 0-4.231 0.46-6.093 1.289l0.096-0.038c-0.951-1.214-2.417-1.986-4.064-1.986-0.020 0-0.039 0-0.059 0l0.003-0c-2.814 0-5.094 2.17-5.094 4.837 0.026 1.559 0.789 2.935 1.955 3.798l0.013 0.009c-1.135 2.063-1.803 4.521-1.803 7.135 0 4.819 2.269 9.107 5.797 11.856l0.034 0.025-2.685 2.685c-0.168 0.167-0.272 0.398-0.272 0.653s0.104 0.486 0.272 0.653l0 0c0.164 0.167 0.391 0.272 0.643 0.276h0.001c0.253-0 0.481-0.106 0.643-0.276l0-0 2.924-2.924c2.19 1.329 4.838 2.115 7.669 2.115s5.479-0.786 7.736-2.153l-0.067 0.038 2.759 2.906c0.168 0.175 0.401 0.286 0.661 0.294l0.001 0c0.244-0.002 0.464-0.1 0.625-0.258l-0 0c0.179-0.168 0.291-0.407 0.291-0.671 0-0.246-0.097-0.47-0.254-0.635l0 0-2.556-2.685c3.582-2.766 5.867-7.062 5.867-11.891 0-0.003 0-0.005 0-0.008v0zM26.17 2.188c0.007-0 0.015-0 0.023-0 1.683 0 3.047 1.364 3.047 3.047 0 0.789-0.3 1.508-0.792 2.049l0.002-0.002c-1.182-1.707-2.652-3.124-4.353-4.212l-0.061-0.036c0.556-0.524 1.307-0.846 2.133-0.846h0zM2.667 4.837c0-1.655 1.453-2.998 3.255-2.998 0.955 0.002 1.819 0.388 2.446 1.012l-0-0c-1.826 1.106-3.351 2.52-4.548 4.185l-0.031 0.045c-0.678-0.522-1.113-1.331-1.122-2.242v-0.001zM23.412 26.722c-0.037 0.018-0.055 0.037-0.092 0.055-2.049 1.382-4.575 2.207-7.293 2.207-2.671 0-5.156-0.796-7.23-2.164l0.049 0.031c-0.065-0.052-0.137-0.101-0.213-0.143l-0.008-0.004c-3.516-2.41-5.793-6.404-5.793-10.931 0-2.518 0.704-4.871 1.927-6.874l-0.033 0.058c0.070-0.066 0.126-0.145 0.164-0.235l0.002-0.005c0.002-0.014 0.009-0.027 0.018-0.037v0c2.381-3.696 6.475-6.109 11.133-6.109 7.29 0 13.199 5.909 13.199 13.199 0 4.541-2.293 8.547-5.785 10.922l-0.046 0.029z"></path>
<path d="M21.425 16.184h-4.966v-6.989c0-0.508-0.412-0.92-0.92-0.92s-0.92 0.412-0.92 0.92v0 7.908c0 0.508 0.412 0.92 0.92 0.92v0h5.885c0.508 0 0.92-0.412 0.92-0.92s-0.412-0.92-0.92-0.92v0z"></path>
</symbol>
<symbol id="icon-xiaoxi" viewBox="0 0 32 32">
<title>xiaoxi</title>
<path d="M28.869 21.385c-0.517-0.355-0.96-0.77-1.332-1.243l-0.010-0.013c-0.723-0.981-1.342-2.168-1.256-5.867 0.017-0.551 0-0.963 0-1.049-0.002-4.318-2.626-8.023-6.366-9.609l-0.068-0.026c-0.105-0.925-0.512-1.74-1.119-2.358l0.001 0.001c-0.721-0.751-1.734-1.218-2.856-1.218-1.113 0-2.119 0.46-2.838 1.2l-0.001 0.001c-0.596 0.611-1.001 1.411-1.116 2.302l-0.002 0.020c-3.625 1.499-6.189 4.882-6.484 8.895l-0.002 0.034c-0.017 0.258-0.017 0.516-0.017 0.757v0.533c0.138 3.045-0.705 5.781-2.391 7.725-0.625 0.508-1.024 1.273-1.032 2.132v0.001c0 1.497 1.29 2.753 2.804 2.753h22.469c1.445 0 2.667-1.101 2.787-2.477 0.005-0.062 0.008-0.135 0.008-0.208 0-0.939-0.461-1.771-1.169-2.281l-0.008-0.006zM28.301 23.725c-0.070 0.517-0.509 0.912-1.040 0.912-0.009 0-0.018-0-0.028-0l0.001 0h-22.469c-0.001 0-0.003 0-0.005 0-0.58 0-1.053-0.457-1.079-1.030l-0-0.002c0.003-0.331 0.164-0.623 0.41-0.807l0.003-0.002c0.051-0.036 0.097-0.076 0.137-0.12l0.001-0.001c2.013-2.271 3.045-5.471 2.89-8.981v-0.482c0-0.206 0-0.43 0.017-0.619v0c0.251-3.548 2.601-6.489 5.806-7.603l0.061-0.018c0.344-0.123 0.585-0.446 0.585-0.825 0-0.006-0-0.013-0-0.019l0 0.001c-0.001-0.021-0.001-0.046-0.001-0.071 0-0.642 0.256-1.224 0.672-1.65l-0 0c0.408-0.426 0.982-0.692 1.617-0.692s1.209 0.265 1.616 0.691l0.001 0.001c0.406 0.427 0.656 1.005 0.656 1.642 0 0.034-0.001 0.067-0.002 0.1l0-0.005c-0 0.010-0.001 0.022-0.001 0.034 0 0.37 0.234 0.686 0.562 0.807l0.006 0.002c3.431 1.232 5.842 4.454 5.849 8.24v0.035s0.017 0.413 0 0.963c-0.086 3.819 0.551 5.488 1.6 6.933 0.497 0.63 1.070 1.169 1.712 1.617l0.026 0.017c0.245 0.194 0.401 0.491 0.401 0.824 0 0.037-0.002 0.073-0.006 0.109l0-0.005z"></path>
<path d="M19.561 27.166c-0.027-0.003-0.058-0.005-0.090-0.005-0.446 0-0.813 0.34-0.856 0.775l-0 0.004c-0.138 1.288-1.217 2.283-2.528 2.288h-0.001c-0.004 0-0.008 0-0.013 0-1.312 0-2.39-0.999-2.515-2.278l-0.001-0.010c-0.054-0.44-0.425-0.777-0.875-0.777-0.025 0-0.050 0.001-0.075 0.003l0.003-0c-0.439 0.043-0.779 0.41-0.779 0.856 0 0.032 0.002 0.063 0.005 0.094l-0-0.004c0.229 2.164 2.044 3.835 4.249 3.835s4.021-1.671 4.248-3.817l0.002-0.019c0.001-0.019 0.002-0.041 0.002-0.062 0-0.452-0.336-0.825-0.772-0.883l-0.005-0z"></path>
</symbol>
<symbol id="icon-xiayibu" viewBox="0 0 32 32">
<title>xiayibu</title>
<path stroke-width="1.6667" stroke-miterlimit="4" stroke-linecap="round" stroke-linejoin="round" d="M8.25 0.833l15.5 15.167-15.5 15.167"></path>
</symbol>
<symbol id="icon-yanzhengma" viewBox="0 0 32 32">
<title>yanzhengma</title>
<path d="M15.792 31.983c-0.001 0-0.001 0-0.002 0-1.301 0-2.533-0.295-3.632-0.823l0.051 0.022c-0.030-0.014-0.055-0.028-0.079-0.042l0.004 0.002-0.049-0.022c-0.052-0.023-0.121-0.055-0.194-0.097-0.765-0.419-1.417-0.939-1.966-1.553l-0.006-0.007-2.481-2.749c-1.188-1.31-2.234-2.784-3.093-4.375l-0.058-0.118c-1.169-2.25-1.689-4.242-1.689-6.439v-9.868c0-0.463 0.375-0.838 0.838-0.838v0c4.691 0 9.064-1.756 11.976-4.817 0.153-0.161 0.368-0.261 0.607-0.261s0.454 0.1 0.607 0.26l0 0c2.91 3.061 7.276 4.817 11.974 4.817 0.463 0 0.838 0.375 0.838 0.838v0 9.751c0 2.212-0.563 4.319-1.771 6.636-0.913 1.671-1.963 3.112-3.174 4.401l0.010-0.011-2.295 2.463c-1.601 1.732-3.88 2.817-6.413 2.83h-0.002zM12.951 29.688c2.704 1.255 5.928 0.586 8.032-1.675l2.295-2.463c1.103-1.173 2.069-2.497 2.858-3.931l0.051-0.1c1.072-2.059 1.575-3.92 1.575-5.852v-8.932c-4.524-0.186-8.724-1.873-11.745-4.716-3.016 2.848-7.221 4.524-11.745 4.716v9.047c0 1.915 0.462 3.661 1.498 5.663 0.848 1.578 1.815 2.939 2.927 4.166l-0.015-0.017 2.478 2.754c0.429 0.482 0.934 0.885 1.497 1.195l0.029 0.015 0.042 0.023 0.049 0.022c0.049 0.015 0.109 0.042 0.174 0.085z"></path>
<path d="M13.973 20.641c-0 0-0 0-0.001 0-0.221 0-0.422-0.085-0.571-0.225l0.001 0-3.77-3.518c-0.156-0.152-0.252-0.365-0.252-0.599 0-0.463 0.375-0.838 0.838-0.838 0.214 0 0.41 0.081 0.558 0.213l-0.001-0.001 3.183 2.976 7.303-7.068c0.151-0.148 0.358-0.239 0.586-0.239 0.464 0 0.84 0.376 0.84 0.84 0 0.236-0.097 0.449-0.253 0.601l-0 0-7.874 7.623c-0.15 0.145-0.355 0.235-0.581 0.235-0.002 0-0.004 0-0.005-0h0z"></path>
</symbol>
<symbol id="icon-yaoqing" viewBox="0 0 29 32">
<title>yaoqing</title>
<path d="M24.23 9.641c0-0.003 0-0.007 0-0.011 0-5.325-4.317-9.641-9.641-9.641s-9.641 4.317-9.641 9.641c0 3.464 1.827 6.502 4.57 8.201l0.041 0.024c-5.721 2.093-9.559 6.936-9.559 12.353 0 0.438 0.355 0.793 0.793 0.793s0.793-0.355 0.793-0.793v0c0-5.233 4.166-9.876 10.149-11.355 0.853 0.274 1.834 0.432 2.853 0.432 5.326 0 9.643-4.317 9.643-9.643 0-0 0-0 0-0v0zM6.533 9.641c0-4.449 3.607-8.056 8.056-8.056s8.056 3.607 8.056 8.056c0 4.449-3.607 8.056-8.056 8.056v0c-4.447-0.005-8.050-3.609-8.056-8.055v-0.001z"></path>
<path d="M28.178 26.101h-3.536v-3.52c0-0.438-0.355-0.793-0.793-0.793s-0.793 0.355-0.793 0.793v0 3.52h-3.52c-0.438 0-0.793 0.355-0.793 0.793s0.355 0.793 0.793 0.793v0h3.52v3.52c0 0.438 0.355 0.793 0.793 0.793s0.793-0.355 0.793-0.793v0-3.52h3.536c0.438 0 0.793-0.355 0.793-0.793s-0.355-0.793-0.793-0.793v0z"></path>
</symbol>
<symbol id="icon-yaoqingma" viewBox="0 0 32 32">
<title>yaoqingma</title>
<path d="M20.474 31.995c-0 0-0.001 0-0.002 0-0.454 0-0.85-0.247-1.061-0.613l-0.003-0.006-3.327-5.83h-9.961c-3.378-0.005-6.115-2.742-6.12-6.119v-13.228c0.004-3.378 2.742-6.115 6.119-6.12h19.834c3.378 0.005 6.115 2.742 6.12 6.119v13.228c-0.005 3.378-2.742 6.115-6.119 6.12h-3.185c-0.677 0-1.225-0.549-1.225-1.225s0.549-1.225 1.225-1.225h3.184c2.026-0.002 3.669-1.644 3.671-3.67v-13.226c-0.002-2.026-1.644-3.669-3.67-3.671h-19.834c-2.026 0.002-3.669 1.644-3.671 3.67v13.228c0.002 2.026 1.644 3.669 3.67 3.671h10.677c0.453 0.002 0.848 0.25 1.058 0.617l0.003 0.006 3.675 6.448c0.101 0.174 0.161 0.384 0.161 0.607 0 0.676-0.548 1.225-1.223 1.226h-0z"></path>
<path d="M9.827 15.138c-0.956 0-1.732-0.775-1.732-1.732s0.775-1.732 1.732-1.732c0.956 0 1.732 0.775 1.732 1.732v0c-0.002 0.956-0.776 1.73-1.731 1.732h-0zM9.827 12.688c-0.396 0-0.718 0.321-0.718 0.718s0.321 0.718 0.718 0.718c0.396 0 0.718-0.321 0.718-0.718v0c-0.002-0.395-0.322-0.715-0.718-0.716h-0z"></path>
<path d="M16.021 15.138c-0.956 0-1.732-0.775-1.732-1.732s0.775-1.732 1.732-1.732c0.956 0 1.732 0.775 1.732 1.732v0c-0.002 0.956-0.776 1.73-1.731 1.732h-0zM16.021 12.688c-0.396 0-0.718 0.321-0.718 0.718s0.321 0.718 0.718 0.718c0.396 0 0.718-0.321 0.718-0.718v0c-0.002-0.395-0.322-0.715-0.718-0.716h-0z"></path>
<path d="M22.23 15.138c-0.956 0-1.732-0.775-1.732-1.732s0.775-1.732 1.732-1.732c0.956 0 1.732 0.775 1.732 1.732v0c-0.002 0.956-0.776 1.73-1.731 1.732h-0zM22.23 12.688c-0.396 0-0.718 0.321-0.718 0.718s0.321 0.718 0.718 0.718c0.396 0 0.718-0.321 0.718-0.718v0c-0.002-0.395-0.322-0.715-0.718-0.716h-0z"></path>
</symbol>
<symbol id="icon-yincang" viewBox="0 0 32 32">
<title>yincang</title>
<path d="M15.995 12.496c-1.935 0-3.504 1.569-3.504 3.504s1.569 3.504 3.504 3.504c1.935 0 3.504-1.569 3.504-3.504v0c0-0 0-0.001 0-0.002 0-1.934-1.568-3.502-3.502-3.502-0.001 0-0.001 0-0.002 0h0z"></path>
<path d="M31.691 14.672c-2.288-4.768-8.448-8.192-15.696-8.192s-13.408 3.424-15.696 8.192c-0.189 0.389-0.3 0.845-0.3 1.328s0.111 0.939 0.308 1.346l-0.008-0.018c2.288 4.768 8.448 8.192 15.696 8.192s13.408-3.424 15.696-8.192c0.189-0.389 0.3-0.845 0.3-1.328s-0.111-0.939-0.308-1.346l0.008 0.018zM15.995 21.216c-2.872 0-5.2-2.328-5.2-5.2s2.328-5.2 5.2-5.2c2.872 0 5.2 2.328 5.2 5.2v0c-0.005 2.87-2.33 5.195-5.199 5.2h-0.001z"></path>
</symbol>
<symbol id="icon-zoushi" viewBox="0 0 32 32">
<title>zoushi</title>
<path d="M30.66 29.704h-29.486c-0.572 0.026-1.025 0.496-1.025 1.071s0.454 1.045 1.023 1.071l0.002 0h29.486c0.572-0.026 1.025-0.496 1.025-1.071s-0.453-1.045-1.023-1.071l-0.002-0z"></path>
<path d="M1.939 20.424v6.496c0 0.597 0.484 1.081 1.081 1.081s1.081-0.484 1.081-1.081v0-6.496c0-0.597-0.484-1.081-1.081-1.081s-1.081 0.484-1.081 1.081v0z"></path>
<path d="M27.734 13.024v13.895c0 0.597 0.484 1.081 1.081 1.081s1.081-0.484 1.081-1.081v0-13.895c0-0.597-0.484-1.081-1.081-1.081s-1.081 0.484-1.081 1.081v0z"></path>
<path d="M19.136 18.926v7.994c0 0.597 0.484 1.081 1.081 1.081s1.081-0.484 1.081-1.081v-7.994c0-0.597-0.484-1.081-1.081-1.081s-1.081 0.484-1.081 1.081v0z"></path>
<path d="M10.537 15.179v11.74c0 0.597 0.484 1.081 1.081 1.081s1.081-0.484 1.081-1.081v0-11.74c0-0.597-0.484-1.081-1.081-1.081s-1.081 0.484-1.081 1.081v0z"></path>
<path d="M0.9 18.088c0.001 0 0.002 0 0.003 0 0.241 0 0.459-0.095 0.62-0.25l9.113-8.706 9.766 5.442 8.069-9.182 1.511 1.336 2.030-6.629-6.466 2.701 1.575 1.392-7.117 8.145-9.679-5.396-10.053 9.594c-0.171 0.164-0.278 0.395-0.278 0.65 0 0.241 0.095 0.46 0.249 0.622l-0-0c0.165 0.173 0.397 0.281 0.655 0.281 0.001 0 0.001 0 0.002 0h-0z"></path>
</symbol>
</defs>
</svg>
